<svg width="28" height="28" viewBox="0 0 28 28" fill="none" xmlns="http://www.w3.org/2000/svg">
<path d="M5 0C2.23858 0 0 2.23858 0 5V23C0 25.7614 2.23858 28 5 28H23C25.7614 28 28 25.7614 28 23V5C28 2.23858 25.7614 0 23 0H5ZM25.4545 22.6471C25.4545 24.3039 24.1114 25.6471 22.4545 25.6471H5.54545C3.8886 25.6471 2.54545 24.3039 2.54545 22.6471V13.3529C2.54545 11.6961 3.8886 10.3529 5.54545 10.3529H22.4545C24.1114 10.3529 25.4545 11.6961 25.4545 13.3529V22.6471ZM4.8984 7.52942C3.5989 7.52942 2.54545 6.47597 2.54545 5.17648C2.54545 3.87698 3.5989 2.82353 4.8984 2.82353H23.1016C24.4011 2.82353 25.4545 3.87698 25.4545 5.17648C25.4545 6.47597 24.4011 7.52942 23.1016 7.52942H4.8984Z" fill="#1E1E1E"/>
<path d="M9.39273 16.4257C9.39273 15.7227 8.82291 15.1529 8.12 15.1529C7.41709 15.1529 6.84727 15.7227 6.84727 16.4257V20.1037C6.84727 20.8066 7.41709 21.3765 8.12 21.3765C8.82291 21.3765 9.39273 20.8066 9.39273 20.1037V16.4257Z" fill="#1E1E1E"/>
<path d="M15.2727 16.3786C15.2727 15.6757 14.7029 15.1059 14 15.1059C13.2971 15.1059 12.7273 15.6757 12.7273 16.3786V20.0567C12.7273 20.7596 13.2971 21.3294 14 21.3294C14.7029 21.3294 15.2727 20.7596 15.2727 20.0567V16.3786Z" fill="#1E1E1E"/>
<path d="M21.1655 16.3786C21.1655 15.6757 20.5956 15.1059 19.8927 15.1059C19.1898 15.1059 18.62 15.6757 18.62 16.3786V20.0567C18.62 20.7596 19.1898 21.3294 19.8927 21.3294C20.5956 21.3294 21.1655 20.7596 21.1655 20.0567V16.3786Z" fill="#1E1E1E"/>
</svg>
