<svg width="25" height="25" viewBox="0 0 25 25" fill="none" xmlns="http://www.w3.org/2000/svg">
<path d="M23.8628 10.0626C23.8628 5.72565 23.8628 3.55719 22.5155 2.20986C21.1682 0.862549 18.9996 0.862549 14.6627 0.862549C10.3258 0.862549 8.15732 0.862549 6.81 2.20986C5.72546 3.29442 5.51393 4.91107 5.47268 7.76259M23.8628 14.6626C23.8628 18.9995 23.8628 21.1681 22.5155 22.5153C21.1682 23.8627 18.9996 23.8627 14.6627 23.8627H12.3626M18.1126 20.4127H12.3626M0.862549 15.2376C0.862549 13.6224 0.862549 12.8149 1.25017 12.2348C1.41798 11.9837 1.63361 11.7681 1.88474 11.6003C2.46486 11.2126 3.27243 11.2126 4.88757 11.2126C6.50271 11.2126 7.31028 11.2126 7.8904 11.6003C8.14154 11.7681 8.35717 11.9837 8.52497 12.2348C8.9126 12.8149 8.9126 13.6224 8.9126 15.2376V19.8377C8.9126 21.4528 8.9126 22.2604 8.52497 22.8404C8.35717 23.0916 8.14154 23.3072 7.8904 23.475C7.31028 23.8627 6.50271 23.8627 4.88757 23.8627C3.27243 23.8627 2.46486 23.8627 1.88474 23.475C1.63361 23.3072 1.41798 23.0916 1.25017 22.8404C0.862549 22.2604 0.862549 21.4528 0.862549 19.8377V15.2376Z" stroke="#1E1E1E" stroke-width="1.72501" stroke-linecap="round"/>
</svg>
