<svg width="23" height="23" viewBox="0 0 23 23" fill="none" xmlns="http://www.w3.org/2000/svg">
<g clip-path="url(#clip0_4_40)">
<path d="M5.11111 13.3634C4.67005 13.3634 4.3125 13.721 4.3125 14.1621C4.3125 14.6031 4.67005 14.9607 5.11111 14.9607V14.1621V13.3634ZM13.6296 14.9607C14.0707 14.9607 14.4282 14.6031 14.4282 14.1621C14.4282 13.721 14.0707 13.3634 13.6296 13.3634V14.1621V14.9607ZM5.11111 17.0903C4.67005 17.0903 4.3125 17.4478 4.3125 17.8889C4.3125 18.33 4.67005 18.6875 5.11111 18.6875V17.8889V17.0903ZM10.9676 18.6875C11.4087 18.6875 11.7662 18.33 11.7662 17.8889C11.7662 17.4478 11.4087 17.0903 10.9676 17.0903V17.8889V18.6875ZM13.3445 8.5907L12.7798 9.15539L12.7798 9.15543L13.3445 8.5907ZM5.11111 14.1621V14.9607H13.6296V14.1621V13.3634H5.11111V14.1621ZM5.11111 17.8889V18.6875H10.9676V17.8889V17.0903H5.11111V17.8889ZM12.5648 1.38428H11.7662V4.04631H12.5648H13.3634V1.38428H12.5648ZM12.5648 4.04631H11.7662C11.7662 5.27863 11.7645 6.28321 11.8708 7.0737C11.9801 7.88716 12.2168 8.59242 12.7798 9.15539L13.3445 8.5907L13.9092 8.02601C13.6925 7.80928 13.5393 7.49724 13.4538 6.86088C13.3651 6.20155 13.3634 5.32378 13.3634 4.04631H12.5648ZM13.3445 8.5907L12.7798 9.15543C13.3428 9.71836 14.048 9.95505 14.8615 10.0644C15.652 10.1707 16.6566 10.169 17.8889 10.169V9.37039V8.57178C16.6114 8.57178 15.7337 8.57008 15.0743 8.48144C14.438 8.39588 14.1259 8.24272 13.9092 8.02597L13.3445 8.5907ZM17.8889 9.37039V10.169H22.1482V9.37039V8.57178H17.8889V9.37039Z" fill="#1E1E1E"/>
<path d="M1.65048 9.37035C1.65048 8.92929 1.29292 8.57173 0.851865 8.57173C0.410808 8.57173 0.0532539 8.92929 0.0532539 9.37035H1.65048ZM21.3496 13.6296C21.3496 14.0707 21.7071 14.4282 22.1482 14.4282C22.5892 14.4282 22.9468 14.0707 22.9468 13.6296H21.3496ZM0.165155 5.03291C0.121988 5.47186 0.442816 5.86269 0.881754 5.90586C1.3207 5.94904 1.71153 5.6282 1.75471 5.18926L0.165155 5.03291ZM22.8349 17.967C22.8781 17.5281 22.5572 17.1372 22.1182 17.0941C21.6793 17.051 21.2885 17.3718 21.2453 17.8107L22.8349 17.967ZM13.6296 21.3495H9.37038V22.9467H13.6296V21.3495ZM1.65048 13.6296V9.37035H0.0532539V13.6296H1.65048ZM21.3496 13.1642V13.6296H22.9468V13.1642H21.3496ZM14.5786 3.63219L18.794 7.42601L19.8624 6.2388L15.6471 2.44498L14.5786 3.63219ZM22.9468 13.1642C22.9468 11.3663 22.9629 10.2281 22.5092 9.20953L21.0502 9.85931C21.3335 10.4953 21.3496 11.2253 21.3496 13.1642H22.9468ZM18.794 7.42601C20.2351 8.72304 20.767 9.22339 21.0502 9.85931L22.5092 9.20953C22.0556 8.19097 21.1988 7.44147 19.8624 6.2388L18.794 7.42601ZM9.40212 1.65044C11.0864 1.65044 11.722 1.66277 12.2885 1.88015L12.8607 0.388952C11.9537 0.040885 10.9655 0.0532156 9.40212 0.0532156V1.65044ZM15.6471 2.44498C14.4908 1.40423 13.7678 0.736976 12.8607 0.388952L12.2885 1.88015C12.8552 2.09759 13.3331 2.51119 14.5786 3.63219L15.6471 2.44498ZM9.37038 21.3495C7.33997 21.3495 5.8975 21.3478 4.80323 21.2007C3.73193 21.0567 3.11471 20.7865 2.66407 20.3359L1.53467 21.4654C2.33154 22.2622 3.34199 22.6158 4.59041 22.7837C5.81584 22.9484 7.38512 22.9467 9.37038 22.9467V21.3495ZM0.0532539 13.6296C0.0532539 15.6148 0.0515609 17.1842 0.216309 18.4096C0.384156 19.6579 0.737802 20.6685 1.53467 21.4654L2.66407 20.3359C2.21343 19.8853 1.94332 19.268 1.79929 18.1968C1.65217 17.1025 1.65048 15.66 1.65048 13.6296H0.0532539ZM13.6296 22.9467C15.6149 22.9467 17.1842 22.9484 18.4096 22.7837C19.658 22.6158 20.6685 22.2622 21.4654 21.4654L20.336 20.3359C19.8853 20.7865 19.2681 21.0567 18.1968 21.2007C17.1025 21.3478 15.66 21.3495 13.6296 21.3495V22.9467ZM9.40212 0.0532156C7.40621 0.0532156 5.82926 0.0515332 4.59881 0.216207C3.346 0.383883 2.33216 0.737146 1.53467 1.53463L2.66407 2.66404C3.1141 2.21402 3.73321 1.94353 4.81069 1.79932C5.91053 1.65212 7.3612 1.65044 9.40212 1.65044V0.0532156ZM1.75471 5.18926C1.884 3.87489 2.16207 3.16604 2.66407 2.66404L1.53467 1.53463C0.645642 2.42366 0.308213 3.57852 0.165155 5.03291L1.75471 5.18926ZM21.2453 17.8107C21.116 19.125 20.8379 19.8339 20.336 20.3359L21.4654 21.4654C22.3544 20.5762 22.6919 19.4215 22.8349 17.967L21.2453 17.8107Z" fill="#1E1E1E"/>
</g>
<defs>
<clipPath id="clip0_4_40">
<rect width="23" height="23" fill="white"/>
</clipPath>
</defs>
</svg>
