<svg width="25" height="25" viewBox="0 0 25 25" fill="none" xmlns="http://www.w3.org/2000/svg">
<path d="M19.2625 10.925C19.7389 10.925 20.125 10.5389 20.125 10.0625C20.125 9.5862 19.7389 9.20005 19.2625 9.20005V10.0625V10.925ZM13.5125 9.20005C13.0362 9.20005 12.65 9.5862 12.65 10.0625C12.65 10.5389 13.0362 10.925 13.5125 10.925V10.0625V9.20005ZM18.5629 2.04207L18.6754 1.18695L18.6754 1.18695L18.5629 2.04207ZM21.533 5.01223L20.6778 5.12479L20.6779 5.12496L21.533 5.01223ZM23 12.1301C23 12.6065 23.3862 12.9926 23.8625 12.9926C24.3389 12.9926 24.725 12.6065 24.725 12.1301H23.8625H23ZM22.9776 6.60545L22.336 7.18189L22.3363 7.18224L22.9776 6.60545ZM22.7197 6.34743L23.2964 5.70613L23.2964 5.70612L22.7197 6.34743ZM14.157 5.28635L13.9205 6.1158L13.9205 6.1158L14.157 5.28635ZM13.1814 4.88229L12.7621 5.63597L12.7621 5.63599L13.1814 4.88229ZM11.2125 3.16255L11.8224 2.55266L11.8224 2.55264L11.2125 3.16255ZM10.5797 2.52976L9.96977 3.13962L9.96982 3.13967L10.5797 2.52976ZM9.94285 1.92114L10.4933 1.25714L10.4933 1.25712L9.94285 1.92114ZM7.43542 0.882536L7.3551 1.74129L7.35512 1.74129L7.43542 0.882536ZM4.60967 0.942301L4.76958 1.78985L4.76958 1.78985L4.60967 0.942301ZM0.942271 4.6097L1.78982 4.76961L1.78982 4.76961L0.942271 4.6097ZM1.82986e-05 6.55476C1.82986e-05 7.03111 0.386173 7.41726 0.862518 7.41726C1.33886 7.41726 1.72502 7.03111 1.72502 6.55476H0.862518H1.82986e-05ZM24.7149 16.975C24.7218 16.4987 24.3413 16.107 23.865 16.1001C23.3887 16.0932 22.997 16.4738 22.9901 16.9501L23.8525 16.9625L24.7149 16.975ZM22.5152 22.5152L21.9053 21.9053L21.9053 21.9054L22.5152 22.5152ZM2.20982 22.5152L2.81971 21.9053L2.81969 21.9053L2.20982 22.5152ZM1.72502 11.2125C1.72502 10.7362 1.33886 10.35 0.862518 10.35C0.386173 10.35 1.82986e-05 10.7362 1.82986e-05 11.2125H0.862518H1.72502ZM19.2625 10.0625V9.20005H13.5125V10.0625V10.925H19.2625V10.0625ZM10.0625 2.01255V2.87505H17.5375V2.01255V1.15005H10.0625V2.01255ZM17.5375 2.01255V2.87505C18.099 2.87505 18.2962 2.87691 18.4503 2.89719L18.5629 2.04207L18.6754 1.18695C18.381 1.14819 18.0442 1.15005 17.5375 1.15005V2.01255ZM18.5629 2.04207L18.4503 2.89719C19.6114 3.05005 20.525 3.96371 20.6778 5.12479L21.533 5.01223L22.3881 4.89967C22.1334 2.9645 20.6106 1.44172 18.6754 1.18695L18.5629 2.04207ZM21.533 5.01223L20.6779 5.12496C20.6982 5.27888 20.7 5.47601 20.7 6.03755H21.5625H22.425C22.425 5.53092 22.4269 5.19396 22.3881 4.8995L21.533 5.01223ZM23.8625 12.1301H24.725C24.725 10.6391 24.7266 9.44003 24.6077 8.49394C24.486 7.5263 24.2264 6.70411 23.6189 6.02867L22.9776 6.60545L22.3363 7.18224C22.6137 7.49064 22.7966 7.91719 22.8961 8.70913C22.9984 9.52261 23 10.5939 23 12.1301H23.8625ZM22.9776 6.60545L23.6192 6.02902C23.5173 5.91566 23.4095 5.80789 23.2964 5.70613L22.7197 6.34743L22.1429 6.98872C22.2108 7.04976 22.2752 7.11426 22.336 7.18189L22.9776 6.60545ZM22.7197 6.34743L23.2964 5.70612C22.6209 5.09865 21.7988 4.83905 20.8311 4.7174C19.885 4.59845 18.6859 4.60005 17.1949 4.60005V5.46255V6.32505C18.7312 6.32505 19.8025 6.32665 20.6159 6.42892C21.4079 6.52849 21.8344 6.71133 22.1429 6.98874L22.7197 6.34743ZM17.1949 5.46255V4.60005H16.7652V5.46255V6.32505H17.1949V5.46255ZM16.7652 5.46255V4.60005C15.3897 4.60005 14.8687 4.59236 14.3934 4.45689L14.157 5.28635L13.9205 6.1158C14.6815 6.33273 15.4871 6.32505 16.7652 6.32505V5.46255ZM14.157 5.28635L14.3934 4.45689C14.1174 4.37821 13.8514 4.26804 13.6008 4.1286L13.1814 4.88229L12.7621 5.63599C13.1286 5.83989 13.5173 6.00087 13.9205 6.1158L14.157 5.28635ZM13.1814 4.88229L13.6008 4.12861C13.1689 3.88831 12.795 3.52523 11.8224 2.55266L11.2125 3.16255L10.6026 3.77244C11.5064 4.67616 12.0706 5.25123 12.7621 5.63597L13.1814 4.88229ZM11.2125 3.16255L11.8224 2.55264L11.1895 1.91985L10.5797 2.52976L9.96982 3.13967L10.6027 3.77246L11.2125 3.16255ZM10.5797 2.52976L11.1896 1.9199C10.8865 1.61682 10.6967 1.42577 10.4933 1.25714L9.94285 1.92114L9.39237 2.58513C9.5194 2.69043 9.64401 2.81383 9.96977 3.13962L10.5797 2.52976ZM9.94285 1.92114L10.4933 1.25712C9.6474 0.555912 8.6097 0.126081 7.51573 0.0237823L7.43542 0.882536L7.35512 1.74129C8.10363 1.81128 8.81363 2.10538 9.39241 2.58515L9.94285 1.92114ZM7.43542 0.882536L7.51575 0.0237843C7.25267 -0.0008232 6.98337 4.88162e-05 6.55473 4.88162e-05V0.862549V1.72505C7.01543 1.72505 7.19082 1.72592 7.3551 1.74129L7.43542 0.882536ZM6.55473 0.862549V4.88162e-05C5.57905 4.88162e-05 4.97168 -0.0037207 4.44975 0.0947552L4.60967 0.942301L4.76958 1.78985C5.09304 1.72882 5.50059 1.72505 6.55473 1.72505V0.862549ZM4.60967 0.942301L4.44976 0.0947549C2.24007 0.511666 0.511636 2.2401 0.0947244 4.44979L0.942271 4.6097L1.78982 4.76961C2.07507 3.25771 3.25768 2.0751 4.76958 1.78985L4.60967 0.942301ZM0.942271 4.6097L0.0947247 4.44979C-0.00375122 4.97171 1.82986e-05 5.57908 1.82986e-05 6.55476H0.862518H1.72502C1.72502 5.50062 1.72879 5.09307 1.78982 4.76961L0.942271 4.6097ZM23.8525 16.9625L22.9901 16.9501C22.948 19.8615 22.7056 21.105 21.9053 21.9053L22.5152 22.5152L23.1251 23.1251C24.4938 21.7563 24.6745 19.7667 24.7149 16.975L23.8525 16.9625ZM22.5152 22.5152L21.9053 21.9054C21.4186 22.392 20.7521 22.6838 19.595 22.8393C18.4132 22.9982 16.8553 23 14.6625 23V23.8625V24.725C16.8066 24.725 18.5014 24.7269 19.8249 24.5489C21.1732 24.3677 22.2645 23.9857 23.1251 23.1251L22.5152 22.5152ZM14.6625 23.8625V23H10.0625V23.8625V24.725H14.6625V23.8625ZM10.0625 23.8625V23C7.86967 23 6.31181 22.9982 5.13 22.8393C3.973 22.6838 3.30641 22.392 2.81971 21.9053L2.20982 22.5152L1.59994 23.1251C2.46056 23.9857 3.55185 24.3677 4.90014 24.5489C6.22361 24.7269 7.91844 24.725 10.0625 24.725V23.8625ZM2.20982 22.5152L2.81969 21.9053C2.33302 21.4187 2.0413 20.7521 1.88574 19.5951C1.72685 18.4133 1.72502 16.8554 1.72502 14.6625H0.862518H1.82986e-05C1.82986e-05 16.8066 -0.00181335 18.5014 0.176122 19.8249C0.357393 21.1732 0.739325 22.2645 1.59996 23.1251L2.20982 22.5152ZM0.862518 14.6625H1.72502V11.2125H0.862518H1.82986e-05V14.6625H0.862518Z" fill="#1E1E1E"/>
</svg>
