<svg width="25" height="25" viewBox="0 0 25 25" fill="none" xmlns="http://www.w3.org/2000/svg">
<path d="M15.8125 19.2625H8.9125M0.862503 12.597C0.862503 9.9653 0.862503 8.64946 1.45958 7.55864C2.05666 6.46783 3.1475 5.79082 5.32914 4.43684L7.62914 3.00939C9.9353 1.57812 11.0884 0.862488 12.3625 0.862488C13.6366 0.862488 14.7897 1.57812 17.0959 3.00939L19.3959 4.43683C21.5776 5.79082 22.6683 6.46783 23.2654 7.55864C23.8625 8.64946 23.8625 9.9653 23.8625 12.597V14.3462C23.8625 18.8322 23.8625 21.0752 22.5152 22.4688C21.1679 23.8625 18.9994 23.8625 14.6625 23.8625H10.0625C5.72558 23.8625 3.55713 23.8625 2.20981 22.4688C0.862503 21.0752 0.862503 18.8322 0.862503 14.3462V12.597Z" stroke="#1E1E1E" stroke-width="1.725" stroke-linecap="round"/>
</svg>
