<svg width="23" height="23" viewBox="0 0 23 23" fill="none" xmlns="http://www.w3.org/2000/svg">
<path d="M8.06219 2.63461C9.00801 -0.878202 13.992 -0.878202 14.9378 2.63461C15.3572 4.19268 15.5671 4.9717 15.981 5.60859C16.3473 6.17212 16.8278 6.65255 17.3915 7.01897C18.0283 7.43289 18.8073 7.64274 20.3654 8.06219C23.8782 9.00801 23.8782 13.992 20.3654 14.9378C18.8073 15.3572 18.0283 15.5671 17.3915 15.981C16.8278 16.3473 16.3473 16.8278 15.981 17.3915C15.5671 18.0283 15.3572 18.8073 14.9378 20.3654C13.992 23.8782 9.00801 23.8782 8.06219 20.3654C7.64274 18.8073 7.43289 18.0283 7.01897 17.3915C6.65255 16.8278 6.17212 16.3473 5.60859 15.981C4.9717 15.5671 4.19268 15.3572 2.63461 14.9378C-0.878202 13.992 -0.878202 9.00801 2.63461 8.06219C4.19268 7.64274 4.9717 7.43289 5.60859 7.01897C6.17212 6.65255 6.65255 6.17212 7.01897 5.60859C7.43289 4.9717 7.64274 4.19268 8.06219 2.63461Z" fill="#1E1E1E"/>
</svg>
