<svg width="25" height="25" viewBox="0 0 25 25" fill="none" xmlns="http://www.w3.org/2000/svg">
<path d="M17.7238 17.7301L16.4956 20.932C15.808 22.6308 15.464 23.4807 14.9874 23.7177C14.5745 23.9232 14.0869 23.9127 13.6831 23.6898C13.2172 23.4325 12.9098 22.5691 12.2954 20.8423L10.4142 15.5553C10.2948 15.2197 10.2349 15.0513 10.1373 14.9111C10.0508 14.7868 9.94293 14.6789 9.81857 14.5924C9.67834 14.4948 9.51037 14.435 9.17449 14.3155L3.88742 12.4343C2.16058 11.8199 1.29716 11.5125 1.03991 11.0466C0.816978 10.6428 0.806547 10.1552 1.01201 9.74223C1.24911 9.26567 2.09862 8.92181 3.79762 8.23413L12.3067 4.78996L15.1702 3.68524M19.3992 13.6443L22.9777 4.91762L22.9783 4.91594C23.6551 3.24374 23.9936 2.40746 23.82 1.87908C23.6692 1.4203 23.3094 1.06048 22.8506 0.909768C22.322 0.736136 21.4853 1.07478 19.8121 1.75209L18.7452 2.18392" stroke="#1E1E1E" stroke-width="1.73" stroke-linecap="round" stroke-linejoin="round"/>
</svg>
