<svg width="25" height="28" viewBox="0 0 25 28" fill="none" xmlns="http://www.w3.org/2000/svg">
<path d="M7.05337 24.1179C9.64562 25.653 10.9418 26.4205 12.365 26.4205C13.7882 26.4205 15.0844 25.653 17.6766 24.1179L18.5534 23.5986C21.1456 22.0635 22.4418 21.2959 23.1534 20.0317C23.865 18.7674 23.865 17.2323 23.865 14.1619M23.6282 8.53166C23.5233 8.0558 23.3719 7.64207 23.1534 7.25388C22.4418 5.98961 21.1456 5.22205 18.5534 3.68691L17.6766 3.16769C15.0844 1.63255 13.7882 0.86499 12.365 0.86499C10.9418 0.86499 9.64562 1.63255 7.05337 3.16769L6.17661 3.68691C3.58436 5.22205 2.28823 5.98961 1.57661 7.25388C0.86499 8.51815 0.86499 10.0533 0.86499 13.1236V14.1619C0.86499 17.2323 0.86499 18.7674 1.57661 20.0317C1.86582 20.5455 2.25158 20.9772 2.78166 21.4119M16.1983 13.6428C16.1983 15.7599 14.4821 17.4761 12.365 17.4761C10.2479 17.4761 8.53166 15.7599 8.53166 13.6428C8.53166 11.5257 10.2479 9.80943 12.365 9.80943C14.4821 9.80943 16.1983 11.5257 16.1983 13.6428Z" stroke="#1E1E1E" stroke-width="1.73" stroke-linecap="round"/>
</svg>
