<svg width="25" height="28" viewBox="0 0 25 28" fill="none" xmlns="http://www.w3.org/2000/svg">
<path d="M7.14671 24.2112C9.73896 25.7464 11.0351 26.5139 12.4583 26.5139C13.8815 26.5139 15.1777 25.7464 17.7699 24.2112L18.6467 23.692C21.239 22.1568 22.5351 21.3893 23.2467 20.125C23.9583 18.8608 23.9583 17.3257 23.9583 14.2553M23.7216 8.62504C23.6167 8.14918 23.4652 7.73545 23.2467 7.34726C22.5351 6.08299 21.239 5.31543 18.6467 3.78029L17.7699 3.26107C15.1777 1.72593 13.8815 0.958374 12.4583 0.958374C11.0351 0.958374 9.73896 1.72593 7.14671 3.26107L6.26995 3.78029C3.6777 5.31543 2.38157 6.08299 1.66995 7.34726C0.958328 8.61153 0.958328 10.1467 0.958328 13.217V14.2553C0.958328 17.3257 0.958328 18.8608 1.66995 20.125C1.95916 20.6388 2.34492 21.0706 2.875 21.5053M16.2917 13.7362C16.2917 15.8532 14.5754 17.5695 12.4583 17.5695C10.3412 17.5695 8.625 15.8532 8.625 13.7362C8.625 11.6191 10.3412 9.90282 12.4583 9.90282C14.5754 9.90282 16.2917 11.6191 16.2917 13.7362Z" stroke="#1E1E1E" stroke-width="1.91667" stroke-linecap="round"/>
</svg>
