<svg width="25" height="27" viewBox="0 0 25 27" fill="none" xmlns="http://www.w3.org/2000/svg">
<path d="M23.865 5.78879C24.3427 5.78879 24.73 5.40152 24.73 4.92379C24.73 4.44606 24.3427 4.05879 23.865 4.05879V4.92379V5.78879ZM0.86499 4.05879C0.387264 4.05879 -9.77516e-06 4.44606 -9.77516e-06 4.92379C-9.77516e-06 5.40152 0.387264 5.78879 0.86499 5.78879V4.92379V4.05879ZM22.4729 8.36367C22.5047 7.887 22.144 7.47482 21.6673 7.44304C21.1907 7.41126 20.7785 7.77191 20.7467 8.24858L21.6098 8.30612L22.4729 8.36367ZM20.9874 17.6401L20.1244 17.5826V17.5826L20.9874 17.6401ZM19.4579 24.1229L18.867 23.4912L18.867 23.4912L19.4579 24.1229ZM5.27141 24.1229L5.86238 23.4912L5.86235 23.4912L5.27141 24.1229ZM3.74192 17.6401L2.87884 17.6977V17.6977L3.74192 17.6401ZM3.98274 8.24858C3.95096 7.77192 3.53878 7.41126 3.06211 7.44304C2.58545 7.47482 2.22479 7.88699 2.25657 8.36366L3.11965 8.30612L3.98274 8.24858ZM9.8433 11.6024C9.79576 11.127 9.37187 10.7802 8.89652 10.8277C8.42116 10.8753 8.07435 11.2992 8.12188 11.7745L8.98259 11.6885L9.8433 11.6024ZM8.79835 18.5392C8.84589 19.0145 9.26977 19.3614 9.74513 19.3138C10.2205 19.2663 10.5673 18.8424 10.5198 18.3671L9.65906 18.4531L8.79835 18.5392ZM16.608 11.7745C16.6555 11.2992 16.3087 10.8753 15.8333 10.8277C15.358 10.7802 14.9341 11.127 14.8865 11.6024L15.7473 11.6885L16.608 11.7745ZM14.2101 18.3671C14.1625 18.8424 14.5094 19.2663 14.9847 19.3138C15.4601 19.3614 15.884 19.0145 15.9315 18.5392L15.0708 18.4531L14.2101 18.3671ZM5.07146 4.92292L5.09331 5.78765L5.09338 5.78765L5.07146 4.92292ZM7.54743 3.13835L8.36084 3.4326L8.36084 3.43259L7.54743 3.13835ZM7.59494 2.99853L6.77433 2.72498L6.77431 2.72503L7.59494 2.99853ZM7.7263 2.60447L6.90569 2.33092L6.90569 2.33093L7.7263 2.60447ZM7.96885 1.95708L7.20164 1.55756L7.20161 1.55761L7.96885 1.95708ZM9.44882 0.890385L9.58522 1.74456L9.58525 1.74456L9.44882 0.890385ZM15.281 0.890385L15.1446 1.74455L15.1446 1.74456L15.281 0.890385ZM16.761 1.95708L15.9938 2.3566L15.9939 2.35677L16.761 1.95708ZM17.0036 2.60447L17.8242 2.3309L17.8242 2.33086L17.0036 2.60447ZM17.135 2.99853L17.9558 2.72569L17.9556 2.72496L17.135 2.99853ZM17.1824 3.13835L16.3689 3.4322L16.369 3.4326L17.1824 3.13835ZM19.6585 4.92292L19.6365 5.78765L19.6366 5.78765L19.6585 4.92292ZM23.865 4.92379V4.05879H0.86499V4.92379V5.78879H23.865V4.92379ZM21.6098 8.30612L20.7467 8.24858L20.1244 17.5826L20.9874 17.6401L21.8505 17.6977L22.4729 8.36367L21.6098 8.30612ZM20.9874 17.6401L20.1244 17.5826C20.003 19.4021 19.916 20.6824 19.7234 21.6489C19.5357 22.591 19.2687 23.1155 18.867 23.4912L19.4579 24.1229L20.0489 24.7545C20.8175 24.0355 21.1954 23.1145 21.4201 21.9869C21.6399 20.8837 21.7324 19.4701 21.8505 17.6977L20.9874 17.6401ZM19.4579 24.1229L18.867 23.4912C18.4653 23.867 17.9242 24.0986 16.9718 24.2232C15.9946 24.3511 14.7114 24.3528 12.8878 24.3528V25.2178V26.0828C14.6642 26.0828 16.0808 26.0845 17.1962 25.9386C18.3362 25.7895 19.2803 25.4736 20.0489 24.7545L19.4579 24.1229ZM12.8878 25.2178V24.3528H11.8416V25.2178V26.0828H12.8878V25.2178ZM11.8416 25.2178V24.3528C10.0181 24.3528 8.73474 24.3511 7.75759 24.2232C6.80512 24.0986 6.26405 23.867 5.86238 23.4912L5.27141 24.1229L4.68044 24.7545C5.44908 25.4736 6.39313 25.7895 7.53319 25.9386C8.64858 26.0845 10.0652 26.0828 11.8416 26.0828V25.2178ZM5.27141 24.1229L5.86235 23.4912C5.46071 23.1155 5.19361 22.591 5.00594 21.6489C4.81341 20.6824 4.72631 19.4021 4.60501 17.5826L3.74192 17.6401L2.87884 17.6977C2.997 19.4701 3.08951 20.8837 3.30928 21.9869C3.53391 23.1145 3.91183 24.0355 4.68048 24.7545L5.27141 24.1229ZM3.74192 17.6401L4.60501 17.5826L3.98274 8.24858L3.11965 8.30612L2.25657 8.36366L2.87884 17.6977L3.74192 17.6401ZM8.98259 11.6885L8.12188 11.7745L8.79835 18.5392L9.65906 18.4531L10.5198 18.3671L9.8433 11.6024L8.98259 11.6885ZM15.7473 11.6885L14.8865 11.6024L14.2101 18.3671L15.0708 18.4531L15.9315 18.5392L16.608 11.7745L15.7473 11.6885ZM4.92379 4.92379V5.78879C4.9946 5.78879 5.04547 5.78886 5.09331 5.78765L5.07146 4.92292L5.04961 4.0582C5.02891 4.05872 5.00419 4.05879 4.92379 4.05879V4.92379ZM5.07146 4.92292L5.09338 5.78765C6.56358 5.75038 7.86057 4.81557 8.36084 3.4326L7.54743 3.13835L6.73401 2.84411C6.4761 3.55707 5.80747 4.03899 5.04955 4.0582L5.07146 4.92292ZM7.54743 3.13835L8.36084 3.43259C8.37715 3.38751 8.3932 3.33914 8.41557 3.27202L7.59494 2.99853L6.77431 2.72503C6.74887 2.80138 6.74103 2.82471 6.73401 2.84411L7.54743 3.13835ZM7.59494 2.99853L8.41555 3.27207L8.54691 2.87801L7.7263 2.60447L6.90569 2.33093L6.77433 2.72498L7.59494 2.99853ZM7.7263 2.60447L8.54691 2.87802C8.6686 2.51294 8.70108 2.42377 8.73609 2.35654L7.96885 1.95708L7.20161 1.55761C7.0879 1.77601 7.00826 2.02324 6.90569 2.33092L7.7263 2.60447ZM7.96885 1.95708L8.73606 2.3566C8.90629 2.02969 9.22125 1.80268 9.58522 1.74456L9.44882 0.890385L9.31243 0.0362062C8.4077 0.180674 7.6248 0.744947 7.20164 1.55756L7.96885 1.95708ZM9.44882 0.890385L9.58525 1.74456C9.66004 1.73261 9.75489 1.72999 10.1398 1.72999V0.86499V-9.77516e-06C9.81541 -9.77516e-06 9.5556 -0.00263262 9.3124 0.036211L9.44882 0.890385ZM10.1398 0.86499V1.72999H14.5901V0.86499V-9.77516e-06H10.1398V0.86499ZM14.5901 0.86499V1.72999C14.975 1.72999 15.0698 1.73261 15.1446 1.74455L15.281 0.890385L15.4175 0.0362146C15.1743 -0.00263393 14.9144 -9.77516e-06 14.5901 -9.77516e-06V0.86499ZM15.281 0.890385L15.1446 1.74456C15.5086 1.80268 15.8236 2.02967 15.9938 2.3566L16.761 1.95708L17.5282 1.55756C17.1051 0.744962 16.3222 0.180674 15.4174 0.0362049L15.281 0.890385ZM16.761 1.95708L15.9939 2.35677C16.0288 2.42385 16.0612 2.51271 16.183 2.87808L17.0036 2.60447L17.8242 2.33086C17.7217 2.02347 17.642 1.77593 17.5281 1.55739L16.761 1.95708ZM17.0036 2.60447L16.183 2.87804L16.3144 3.27209L17.135 2.99853L17.9556 2.72496L17.8242 2.3309L17.0036 2.60447ZM17.135 2.99853L16.3141 3.27136C16.3369 3.33985 16.3527 3.38737 16.3689 3.4322L17.1824 3.13835L17.996 2.8445C17.9889 2.82491 17.9807 2.80048 17.9558 2.72569L17.135 2.99853ZM17.1824 3.13835L16.369 3.4326C16.8693 4.81557 18.1663 5.75038 19.6365 5.78765L19.6585 4.92292L19.6804 4.0582C18.9224 4.03899 18.2538 3.55707 17.9959 2.84411L17.1824 3.13835ZM19.6585 4.92292L19.6366 5.78765C19.6844 5.78886 19.7352 5.78879 19.8061 5.78879V4.92379V4.05879C19.7256 4.05879 19.701 4.05872 19.6803 4.0582L19.6585 4.92292Z" fill="#1E1E1E"/>
</svg>
