<svg width="26" height="27" viewBox="0 0 26 27" fill="none" xmlns="http://www.w3.org/2000/svg">
<path d="M24.0147 6.08827C24.5751 6.08827 25.0294 5.63397 25.0294 5.07357C25.0294 4.51317 24.5751 4.05887 24.0147 4.05887V5.07357V6.08827ZM1.01469 4.05887C0.454291 4.05887 -5.84126e-06 4.51317 -5.84126e-06 5.07357C-5.84126e-06 5.63397 0.454291 6.08827 1.01469 6.08827V5.07357V4.05887ZM22.7719 8.52341C22.8092 7.96425 22.3862 7.48073 21.827 7.44345C21.2678 7.40617 20.7843 7.82924 20.747 8.3884L21.7595 8.4559L22.7719 8.52341ZM21.1371 17.7899L20.1247 17.7224V17.7224L21.1371 17.7899ZM19.6077 24.2726L18.9144 23.5316L18.9144 23.5317L19.6077 24.2726ZM5.42112 24.2726L6.11436 23.5317L6.11432 23.5316L5.42112 24.2726ZM3.89163 17.7899L2.87917 17.8574L2.87917 17.8574L3.89163 17.7899ZM4.28181 8.38841C4.24453 7.82924 3.76102 7.40617 3.20186 7.44345C2.6427 7.48073 2.21963 7.96424 2.25691 8.5234L3.26936 8.4559L4.28181 8.38841ZM10.142 11.7373C10.0862 11.1796 9.58895 10.7728 9.03133 10.8286C8.47371 10.8843 8.06687 11.3816 8.12263 11.9392L9.13229 11.8382L10.142 11.7373ZM8.7991 18.7039C8.85486 19.2615 9.35211 19.6683 9.90973 19.6126C10.4674 19.5568 10.8742 19.0596 10.8184 18.5019L9.80876 18.6029L8.7991 18.7039ZM16.9066 11.9392C16.9624 11.3816 16.5555 10.8843 15.9979 10.8286C15.4403 10.7728 14.9431 11.1796 14.8873 11.7373L15.897 11.8382L16.9066 11.9392ZM14.2108 18.5019C14.1551 19.0596 14.5619 19.5568 15.1195 19.6126C15.6771 19.6683 16.1744 19.2615 16.2302 18.7039L15.2205 18.6029L14.2108 18.5019ZM5.22117 5.0727L5.2468 6.08708L5.24688 6.08708L5.22117 5.0727ZM7.69713 3.28813L8.65132 3.6333L8.65132 3.63329L7.69713 3.28813ZM7.74465 3.14831L6.78202 2.82742L6.782 2.82748L7.74465 3.14831ZM7.876 2.75425L6.91338 2.43336L6.91338 2.43336L7.876 2.75425ZM8.11855 2.10686L7.21857 1.6382L7.21854 1.63826L8.11855 2.10686ZM9.59853 1.04017L9.75853 2.04217L9.75857 2.04217L9.59853 1.04017ZM15.4307 1.04017L15.2707 2.04216L15.2707 2.04217L15.4307 1.04017ZM16.9107 2.10686L16.0107 2.57552L16.0108 2.57572L16.9107 2.10686ZM17.1533 2.75425L18.1159 2.43334L18.1159 2.43329L17.1533 2.75425ZM17.2847 3.14831L18.2476 2.82825L18.2473 2.82739L17.2847 3.14831ZM17.3322 3.28813L16.3778 3.63284L16.378 3.6333L17.3322 3.28813ZM19.8082 5.0727L19.7824 6.08708L19.7825 6.08708L19.8082 5.0727ZM24.0147 5.07357V4.05887H1.01469V5.07357V6.08827H24.0147V5.07357ZM21.7595 8.4559L20.747 8.3884L20.1247 17.7224L21.1371 17.7899L22.1496 17.8574L22.7719 8.52341L21.7595 8.4559ZM21.1371 17.7899L20.1247 17.7224C20.0031 19.546 19.9165 20.8148 19.7263 21.7695C19.5418 22.6955 19.2843 23.1856 18.9144 23.5316L19.6077 24.2726L20.3009 25.0136C21.1013 24.2649 21.4888 23.3096 21.7166 22.1659C21.9387 21.0509 22.0317 19.6258 22.1496 17.8574L21.1371 17.7899ZM19.6077 24.2726L18.9144 23.5317C18.5445 23.8778 18.0383 24.1021 17.1021 24.2246C16.1369 24.3508 14.8651 24.3529 13.0375 24.3529V25.3676V26.3823C14.8098 26.3823 16.238 26.3843 17.3653 26.2368C18.5216 26.0856 19.5005 25.7624 20.3009 25.0136L19.6077 24.2726ZM13.0375 25.3676V24.3529H11.9913V25.3676V26.3823H13.0375V25.3676ZM11.9913 25.3676V24.3529C10.1637 24.3529 8.8919 24.3508 7.92671 24.2246C6.99048 24.1021 6.48427 23.8778 6.11436 23.5317L5.42112 24.2726L4.72787 25.0136C5.52826 25.7624 6.50718 26.0856 7.66348 26.2368C8.79082 26.3843 10.219 26.3823 11.9913 26.3823V25.3676ZM5.42112 24.2726L6.11432 23.5316C5.74444 23.1856 5.48694 22.6955 5.30246 21.7695C5.11228 20.8148 5.02565 19.546 4.90408 17.7224L3.89163 17.7899L2.87917 17.8574C2.99707 19.6258 3.09004 21.0509 3.31217 22.1659C3.54 23.3096 3.9275 24.2649 4.72791 25.0136L5.42112 24.2726ZM3.89163 17.7899L4.90408 17.7224L4.28181 8.38841L3.26936 8.4559L2.25691 8.5234L2.87917 17.8574L3.89163 17.7899ZM9.13229 11.8382L8.12263 11.9392L8.7991 18.7039L9.80876 18.6029L10.8184 18.5019L10.142 11.7373L9.13229 11.8382ZM15.897 11.8382L14.8873 11.7373L14.2108 18.5019L15.2205 18.6029L16.2302 18.7039L16.9066 11.9392L15.897 11.8382ZM5.07349 5.07357V6.08827C5.14347 6.08827 5.19661 6.08835 5.2468 6.08708L5.22117 5.0727L5.19554 4.05833C5.17718 4.05879 5.15472 4.05887 5.07349 4.05887V5.07357ZM5.22117 5.0727L5.24688 6.08708C6.77871 6.04825 8.13007 5.07425 8.65132 3.6333L7.69713 3.28813L6.74294 2.94296C6.50601 3.59795 5.89174 4.04068 5.19546 4.05833L5.22117 5.0727ZM7.69713 3.28813L8.65132 3.63329C8.66843 3.58599 8.68519 3.53545 8.70729 3.46913L7.74465 3.14831L6.782 2.82748C6.75629 2.90462 6.74915 2.92579 6.74294 2.94297L7.69713 3.28813ZM7.74465 3.14831L8.70727 3.46919L8.83863 3.07514L7.876 2.75425L6.91338 2.43336L6.78202 2.82742L7.74465 3.14831ZM7.876 2.75425L8.83863 3.07514C8.96198 2.7051 8.99038 2.62961 9.01857 2.57545L8.11855 2.10686L7.21854 1.63826C7.09802 1.86974 7.01429 2.13064 6.91338 2.43336L7.876 2.75425ZM8.11855 2.10686L9.01854 2.57552C9.16689 2.29064 9.44135 2.09282 9.75853 2.04217L9.59853 1.04017L9.43853 0.0381593C8.48701 0.190099 7.66362 0.783557 7.21857 1.6382L8.11855 2.10686ZM9.59853 1.04017L9.75857 2.04217C9.81878 2.03255 9.89936 2.02947 10.2895 2.02947V1.01477V7.04527e-05C9.97035 7.04527e-05 9.69627 -0.00300622 9.43849 0.0381649L9.59853 1.04017ZM10.2895 1.01477V2.02947H14.7398V1.01477V7.04527e-05H10.2895V1.01477ZM14.7398 1.01477V2.02947C15.1299 2.02947 15.2105 2.03255 15.2707 2.04216L15.4307 1.04017L15.5908 0.0381691C15.333 -0.00300789 15.0589 7.04527e-05 14.7398 7.04527e-05V1.01477ZM15.4307 1.04017L15.2707 2.04217C15.5879 2.09282 15.8624 2.29062 16.0107 2.57552L16.9107 2.10686L17.8107 1.6382C17.3657 0.783574 16.5423 0.190099 15.5907 0.0381577L15.4307 1.04017ZM16.9107 2.10686L16.0108 2.57572C16.039 2.6297 16.0672 2.70483 16.1907 3.07521L17.1533 2.75425L18.1159 2.43329C18.0151 2.13091 17.9313 1.86965 17.8106 1.63799L16.9107 2.10686ZM17.1533 2.75425L16.1907 3.07516L16.322 3.46922L17.2847 3.14831L18.2473 2.82739L18.1159 2.43334L17.1533 2.75425ZM17.2847 3.14831L16.3218 3.46836C16.3443 3.5363 16.3608 3.58582 16.3778 3.63284L17.3322 3.28813L18.2865 2.94342C18.2802 2.92602 18.2726 2.90358 18.2476 2.82825L17.2847 3.14831ZM17.3322 3.28813L16.378 3.6333C16.8992 5.07425 18.2505 6.04826 19.7824 6.08708L19.8082 5.0727L19.8339 4.05833C19.1375 4.04068 18.5233 3.59795 18.2863 2.94296L17.3322 3.28813ZM19.8082 5.0727L19.7825 6.08708C19.8327 6.08835 19.8858 6.08827 19.9558 6.08827V5.07357V4.05887C19.8745 4.05887 19.8521 4.05879 19.8338 4.05833L19.8082 5.0727Z" fill="#1E1E1E"/>
</svg>
